<svg xmlns="http://www.w3.org/2000/svg" viewBox="119.34184265136719 157.1999969482422 186.95814514160156 115.59999084472656">
  <g fill="none">
    <path fill="#307FE2" d="M248.3,173.3c22.9,0,41.7,18.6,41.7,41.7s-18.6,41.7-41.7,41.7c-8.7,0-16.9-2.6-23.9-7.5
      c-1.7-1.2-9.2-6.8-19-12.5c-14.7-8.4-27.7-13-38.6-13.7c2.7-2.7,5.6-5.3,8.7-8C205.1,188,230.9,173.3,248.3,173.3 M248.3,157.2
      c-53.2,0-127.6,91.3-127.6,91.3s-2.2,2.4-1,3.6c0.2,0.2,0.5,0.3,0.9,0.3c1.2,0,2.9-1,2.9-1s19.5-12.5,40.7-12.5S215,262,215,262
      c9.4,6.7,21,10.8,33.5,10.8c31.8,0,57.8-25.8,57.8-57.8C306.1,183,280.3,157.2,248.3,157.2L248.3,157.2z"/>
  </g>
</svg>


